<svg width="32" height="32" viewBox="0 0 32 32" fill="none" xmlns="http://www.w3.org/2000/svg">
<g clip-path="url(#clip0_2127_33)">
<circle cx="16" cy="16" r="16" fill="#8698E1"/>
<path fill-rule="evenodd" clip-rule="evenodd" d="M20.1606 25.3724C18.8404 25.3238 15.0989 24.8067 11.1804 20.8891C7.26289 16.9707 6.74672 13.2301 6.69722 11.9089C6.62387 9.89561 8.16595 7.94005 9.94732 7.17634C10.1618 7.08371 10.3967 7.04845 10.629 7.074C10.8613 7.09956 11.0829 7.18506 11.2721 7.32212C12.739 8.39112 13.7512 10.0084 14.6203 11.28C14.8116 11.5594 14.8933 11.8994 14.85 12.2351C14.8068 12.5709 14.6415 12.879 14.3856 13.1008L12.5969 14.4293C12.5105 14.4917 12.4497 14.5833 12.4257 14.6872C12.4018 14.7911 12.4164 14.9001 12.4667 14.994C12.872 15.7302 13.5926 16.8267 14.4177 17.6519C15.2428 18.477 16.3916 19.2453 17.1792 19.6964C17.2779 19.7518 17.3941 19.7673 17.5039 19.7397C17.6138 19.712 17.7088 19.6434 17.7696 19.5478L18.9339 17.7756C19.148 17.4913 19.4638 17.3008 19.8152 17.244C20.1665 17.1873 20.5262 17.2687 20.8189 17.4713C22.1089 18.3642 23.6143 19.359 24.7163 20.77C24.8645 20.9606 24.9587 21.1875 24.9892 21.427C25.0197 21.6665 24.9853 21.9098 24.8896 22.1314C24.1222 23.922 22.1804 25.4466 20.1606 25.3724Z" fill="white"/>
</g>
<defs>
<clipPath id="clip0_2127_33">
<rect width="32" height="32" fill="white"/>
</clipPath>
</defs>
</svg>
