<svg width="40" height="40" viewBox="0 0 40 40" fill="none" xmlns="http://www.w3.org/2000/svg">
<g clip-path="url(#clip0_2127_45)">
<path fill-rule="evenodd" clip-rule="evenodd" d="M35.6041 24.5959C35.6041 24.5959 38.8381 27.7899 39.6381 29.2679C39.6546 29.2886 39.6668 29.3124 39.6741 29.3379C39.9994 29.8833 40.0814 30.3133 39.9201 30.6279C39.6501 31.1499 38.7361 31.4119 38.4261 31.4339H32.7101C32.3121 31.4339 31.4841 31.3299 30.4761 30.6339C29.7061 30.0959 28.9401 29.2099 28.1981 28.3439C27.0901 27.0579 26.1321 25.9419 25.1621 25.9419C25.0397 25.9434 24.9183 25.9637 24.8021 26.0019C24.0681 26.2339 23.1361 27.2799 23.1361 30.0659C23.1361 30.9379 22.4481 31.4339 21.9661 31.4339H19.3481C18.4561 31.4339 13.8121 31.1219 9.69406 26.7799C4.64806 21.4639 0.116058 10.7999 0.072058 10.7059C-0.209942 10.0159 0.382058 9.63992 1.02206 9.63992H6.79406C7.56806 9.63992 7.82006 10.1079 7.99606 10.5279C8.20006 11.0099 8.95606 12.9379 10.1961 15.1039C12.2041 18.6279 13.4381 20.0619 14.4241 20.0619C14.6093 20.0622 14.7913 20.0139 14.9521 19.9219C16.2401 19.2139 16.0001 14.6139 15.9401 13.6659C15.9401 13.4819 15.9381 11.6119 15.2781 10.7079C14.8061 10.0599 14.0021 9.80792 13.5161 9.71592C13.6461 9.52792 13.9221 9.23992 14.2761 9.06992C15.1581 8.62992 16.7521 8.56592 18.3341 8.56592H19.2121C20.9281 8.58992 21.3721 8.69992 21.9961 8.85792C23.2521 9.15792 23.2761 9.97192 23.1661 12.7439C23.1341 13.5359 23.1001 14.4279 23.1001 15.4779C23.1001 15.7019 23.0901 15.9519 23.0901 16.2059C23.0521 17.6279 23.0021 19.2299 24.0061 19.8879C24.1358 19.9701 24.2865 20.0131 24.4401 20.0119C24.7881 20.0119 25.8301 20.0119 28.6561 15.1619C29.8961 13.0199 30.8561 10.4939 30.9221 10.3039C30.9781 10.1979 31.1461 9.89992 31.3501 9.77992C31.4958 9.70441 31.6579 9.66595 31.8221 9.66792H38.6121C39.3521 9.66792 39.8541 9.77992 39.9521 10.0599C40.1161 10.5139 39.9201 11.8999 36.8201 16.0919C36.2981 16.7899 35.8401 17.3939 35.4381 17.9219C32.6281 21.6099 32.6281 21.7959 35.6041 24.5959Z" fill="#8698E1"/>
</g>
<defs>
<clipPath id="clip0_2127_45">
<rect width="40" height="40" fill="white"/>
</clipPath>
</defs>
</svg>
